# MagicaVoxel @ Ephtracy

# group
o fence

# material
mtllib idle_farmer-7-fence.mtl
usemtl palette

# normals
vn -1 0 0
vn 1 0 0
vn 0 0 1
vn 0 0 -1
vn 0 -1 0
vn 0 1 0

# texcoords
vt 0.662109 0.5
vt 0.666016 0.5
vt 0.853516 0.5

# verts
v -5.7 0.4 5.4
v -5.7 0.4 5.2
v -5.7 0.6 5.4
v -5.7 0.6 5.2
v -5.7 0.8 5.4
v -5.7 0.8 5.2
v -5.7 1 5.4
v -5.7 1 5.2
v -5.5 0 5.4
v -5.5 0 5.3
v -5.5 0 5.2
v -5.5 0.3 5.4
v -5.5 0.3 5.3
v -5.5 0.4 5.4
v -5.5 0.4 5.2
v -5.5 0.6 5.4
v -5.5 0.6 5.3
v -5.5 0.6 5.2
v -5.5 0.7 5.4
v -5.5 0.7 5.3
v -5.5 0.8 5.4
v -5.5 0.8 5.2
v -5.5 1 5.4
v -5.5 1 5.2
v -5.5 1.1 5.4
v -5.5 1.1 5.2
v -5.4 0 5.5
v -5.4 0 5.4
v -5.4 0 5.2
v -5.4 0 5.1
v -5.4 0.2 5.2
v -5.4 0.2 5.1
v -5.4 0.3 5.4
v -5.4 0.5 5.4
v -5.4 0.5 5.2
v -5.4 0.5 5.1
v -5.4 0.7 5.4
v -5.4 1.1 5.5
v -5.4 1.1 5.4
v -5.4 1.1 5.2
v -5.4 1.1 5.1
v -4.5 0 5.4
v -4.5 0 5.2
v -4.5 0.1 5.3
v -4.5 0.1 5.2
v -4.5 0.2 5.3
v -4.5 0.2 5.2
v -4.5 0.4 5.4
v -4.5 0.4 5.3
v -4.5 0.4 5.2
v -4.5 0.6 5.4
v -4.5 0.6 5.3
v -4.5 0.6 5.2
v -4.5 0.8 5.4
v -4.5 0.8 5.2
v -4.5 1 5.4
v -4.5 1 5.3
v -4.5 1 5.2
v -4.5 1.1 5.4
v -4.5 1.1 5.2
v -4.4 0 5.5
v -4.4 0 5.4
v -4.4 0 5.2
v -4.4 0 5.1
v -4.4 0.1 5.2
v -4.4 0.2 5.2
v -4.4 0.5 5.2
v -4.4 0.6 5.5
v -4.4 0.6 5.4
v -4.4 0.7 5.2
v -4.4 0.7 5.1
v -4.4 0.9 5.5
v -4.4 0.9 5.4
v -4.4 0.9 5.2
v -4.4 1 5.2
v -4.4 1 5.1
v -4.4 1.1 5.5
v -4.4 1.1 5.4
v -4.4 1.1 5.2
v -4.4 1.1 5.1
v -5.2 0 5.5
v -5.2 0 5.4
v -5.2 0 5.2
v -5.2 0 5.1
v -5.2 0.1 5.4
v -5.2 0.1 5.2
v -5.2 0.2 5.5
v -5.2 0.2 5.4
v -5.2 0.3 5.4
v -5.2 0.4 5.5
v -5.2 0.4 5.4
v -5.2 0.4 5.2
v -5.2 0.6 5.5
v -5.2 0.6 5.4
v -5.2 0.6 5.2
v -5.2 0.6 5.1
v -5.2 0.8 5.2
v -5.2 0.9 5.4
v -5.2 0.9 5.2
v -5.2 0.9 5.1
v -5.2 1 5.5
v -5.2 1 5.4
v -5.2 1.1 5.5
v -5.2 1.1 5.4
v -5.2 1.1 5.2
v -5.2 1.1 5.1
v -5.1 0 5.4
v -5.1 0 5.2
v -5.1 0.1 5.4
v -5.1 0.1 5.2
v -5.1 0.3 5.4
v -5.1 0.3 5.3
v -5.1 0.4 5.4
v -5.1 0.4 5.3
v -5.1 0.4 5.2
v -5.1 0.6 5.4
v -5.1 0.6 5.2
v -5.1 0.8 5.4
v -5.1 0.8 5.3
v -5.1 0.8 5.2
v -5.1 1 5.4
v -5.1 1 5.3
v -5.1 1 5.2
v -5.1 1.1 5.4
v -5.1 1.1 5.2
v -4.2 0 5.5
v -4.2 0 5.4
v -4.2 0 5.2
v -4.2 0 5.1
v -4.2 0.2 5.4
v -4.2 0.3 5.2
v -4.2 0.3 5.1
v -4.2 0.5 5.4
v -4.2 0.5 5.2
v -4.2 0.7 5.2
v -4.2 0.8 5.2
v -4.2 0.9 5.2
v -4.2 1.1 5.5
v -4.2 1.1 5.4
v -4.2 1.1 5.2
v -4.2 1.1 5.1
v -4.1 0 5.4
v -4.1 0 5.2
v -4.1 0.2 5.4
v -4.1 0.2 5.3
v -4.1 0.4 5.4
v -4.1 0.4 5.3
v -4.1 0.4 5.2
v -4.1 0.6 5.4
v -4.1 0.6 5.3
v -4.1 0.6 5.2
v -4.1 0.7 5.3
v -4.1 0.7 5.2
v -4.1 0.8 5.4
v -4.1 0.8 5.2
v -4.1 1 5.4
v -4.1 1 5.2
v -4.1 1.1 5.4
v -4.1 1.1 5.2
v -3.9 0.4 5.4
v -3.9 0.4 5.2
v -3.9 0.6 5.4
v -3.9 0.6 5.2
v -3.9 0.8 5.4
v -3.9 0.8 5.2
v -3.9 1 5.4
v -3.9 1 5.2
v -5.4 0 5.5
v -5.4 1.1 5.5
v -5.3 0.2 5.5
v -5.3 0.4 5.5
v -5.3 0.6 5.5
v -5.3 1 5.5
v -5.2 0 5.5
v -5.2 0.2 5.5
v -5.2 0.4 5.5
v -5.2 0.6 5.5
v -5.2 1 5.5
v -5.2 1.1 5.5
v -4.4 0 5.5
v -4.4 0.6 5.5
v -4.4 0.9 5.5
v -4.4 1.1 5.5
v -4.3 0.6 5.5
v -4.3 0.9 5.5
v -4.2 0 5.5
v -4.2 1.1 5.5
v -5.7 0.4 5.4
v -5.7 0.6 5.4
v -5.7 0.8 5.4
v -5.7 1 5.4
v -5.5 0 5.4
v -5.5 0.3 5.4
v -5.5 0.4 5.4
v -5.5 0.5 5.4
v -5.5 0.6 5.4
v -5.5 0.7 5.4
v -5.5 0.8 5.4
v -5.5 1 5.4
v -5.5 1.1 5.4
v -5.4 0 5.4
v -5.4 0.3 5.4
v -5.4 0.5 5.4
v -5.4 0.7 5.4
v -5.4 1.1 5.4
v -5.2 0 5.4
v -5.2 0.1 5.4
v -5.2 0.2 5.4
v -5.2 0.3 5.4
v -5.2 0.4 5.4
v -5.2 0.6 5.4
v -5.2 0.9 5.4
v -5.2 1 5.4
v -5.2 1.1 5.4
v -5.1 0 5.4
v -5.1 0.1 5.4
v -5.1 0.3 5.4
v -5.1 0.4 5.4
v -5.1 0.6 5.4
v -5.1 0.8 5.4
v -5.1 1 5.4
v -5.1 1.1 5.4
v -4.9 0.9 5.4
v -4.9 1 5.4
v -4.7 0.5 5.4
v -4.7 0.6 5.4
v -4.5 0 5.4
v -4.5 0.4 5.4
v -4.5 0.5 5.4
v -4.5 0.6 5.4
v -4.5 0.8 5.4
v -4.5 1 5.4
v -4.5 1.1 5.4
v -4.4 0 5.4
v -4.4 0.6 5.4
v -4.4 0.9 5.4
v -4.4 1.1 5.4
v -4.2 0 5.4
v -4.2 0.2 5.4
v -4.2 0.5 5.4
v -4.2 1.1 5.4
v -4.1 0 5.4
v -4.1 0.2 5.4
v -4.1 0.4 5.4
v -4.1 0.5 5.4
v -4.1 0.6 5.4
v -4.1 0.8 5.4
v -4.1 1 5.4
v -4.1 1.1 5.4
v -3.9 0.4 5.4
v -3.9 0.6 5.4
v -3.9 0.8 5.4
v -3.9 1 5.4
v -5.7 0.4 5.2
v -5.7 0.6 5.2
v -5.7 0.8 5.2
v -5.7 1 5.2
v -5.5 0 5.2
v -5.5 0.4 5.2
v -5.5 0.6 5.2
v -5.5 0.8 5.2
v -5.5 1 5.2
v -5.5 1.1 5.2
v -5.4 0 5.2
v -5.4 0.2 5.2
v -5.4 0.5 5.2
v -5.4 1.1 5.2
v -5.2 0 5.2
v -5.2 0.1 5.2
v -5.2 0.4 5.2
v -5.2 0.6 5.2
v -5.2 0.8 5.2
v -5.2 0.9 5.2
v -5.2 1.1 5.2
v -5.1 0 5.2
v -5.1 0.1 5.2
v -5.1 0.4 5.2
v -5.1 0.6 5.2
v -5.1 0.8 5.2
v -5.1 1 5.2
v -5.1 1.1 5.2
v -4.9 0.8 5.2
v -4.9 0.9 5.2
v -4.7 0.9 5.2
v -4.7 1 5.2
v -4.5 0 5.2
v -4.5 0.1 5.2
v -4.5 0.2 5.2
v -4.5 0.4 5.2
v -4.5 0.5 5.2
v -4.5 0.6 5.2
v -4.5 0.8 5.2
v -4.5 1 5.2
v -4.5 1.1 5.2
v -4.4 0 5.2
v -4.4 0.1 5.2
v -4.4 0.2 5.2
v -4.4 0.5 5.2
v -4.4 0.7 5.2
v -4.4 0.9 5.2
v -4.4 1 5.2
v -4.4 1.1 5.2
v -4.2 0 5.2
v -4.2 0.3 5.2
v -4.2 0.5 5.2
v -4.2 0.7 5.2
v -4.2 0.8 5.2
v -4.2 0.9 5.2
v -4.2 1.1 5.2
v -4.1 0 5.2
v -4.1 0.4 5.2
v -4.1 0.5 5.2
v -4.1 0.6 5.2
v -4.1 0.7 5.2
v -4.1 0.8 5.2
v -4.1 0.9 5.2
v -4.1 1 5.2
v -4.1 1.1 5.2
v -3.9 0.4 5.2
v -3.9 0.6 5.2
v -3.9 0.8 5.2
v -3.9 1 5.2
v -5.4 0 5.1
v -5.4 0.2 5.1
v -5.4 0.5 5.1
v -5.4 1.1 5.1
v -5.3 0.2 5.1
v -5.3 0.5 5.1
v -5.3 0.6 5.1
v -5.3 0.9 5.1
v -5.2 0 5.1
v -5.2 0.6 5.1
v -5.2 0.9 5.1
v -5.2 1.1 5.1
v -4.4 0 5.1
v -4.4 0.7 5.1
v -4.4 1 5.1
v -4.4 1.1 5.1
v -4.3 0 5.1
v -4.3 0.3 5.1
v -4.3 0.7 5.1
v -4.3 1 5.1
v -4.2 0 5.1
v -4.2 0.3 5.1
v -4.2 1.1 5.1
v -5.4 0 5.5
v -5.2 0 5.5
v -4.4 0 5.5
v -4.2 0 5.5
v -5.5 0 5.4
v -5.4 0 5.4
v -5.2 0 5.4
v -5.1 0 5.4
v -4.5 0 5.4
v -4.4 0 5.4
v -4.2 0 5.4
v -4.1 0 5.4
v -5.5 0 5.3
v -5.4 0 5.3
v -5.5 0 5.2
v -5.4 0 5.2
v -5.2 0 5.2
v -5.1 0 5.2
v -4.5 0 5.2
v -4.4 0 5.2
v -4.3 0 5.2
v -4.2 0 5.2
v -4.1 0 5.2
v -5.4 0 5.1
v -5.2 0 5.1
v -4.4 0 5.1
v -4.3 0 5.1
v -4.2 0 5.1
v -5.7 0.4 5.4
v -5.5 0.4 5.4
v -5.1 0.4 5.4
v -4.5 0.4 5.4
v -4.1 0.4 5.4
v -3.9 0.4 5.4
v -5.1 0.4 5.3
v -4.5 0.4 5.3
v -4.1 0.4 5.3
v -5.7 0.4 5.2
v -5.5 0.4 5.2
v -5.1 0.4 5.2
v -4.5 0.4 5.2
v -4.1 0.4 5.2
v -3.9 0.4 5.2
v -5.7 0.8 5.4
v -5.5 0.8 5.4
v -5.1 0.8 5.4
v -4.5 0.8 5.4
v -4.1 0.8 5.4
v -3.9 0.8 5.4
v -5.1 0.8 5.3
v -4.9 0.8 5.3
v -5.7 0.8 5.2
v -5.5 0.8 5.2
v -5.1 0.8 5.2
v -4.9 0.8 5.2
v -4.5 0.8 5.2
v -4.1 0.8 5.2
v -3.9 0.8 5.2
v -5.7 0.6 5.4
v -5.5 0.6 5.4
v -5.1 0.6 5.4
v -4.7 0.6 5.4
v -4.5 0.6 5.4
v -4.1 0.6 5.4
v -3.9 0.6 5.4
v -5.5 0.6 5.3
v -4.7 0.6 5.3
v -4.5 0.6 5.3
v -4.1 0.6 5.3
v -5.7 0.6 5.2
v -5.5 0.6 5.2
v -5.1 0.6 5.2
v -4.5 0.6 5.2
v -4.1 0.6 5.2
v -3.9 0.6 5.2
v -5.7 1 5.4
v -5.5 1 5.4
v -5.1 1 5.4
v -4.9 1 5.4
v -4.5 1 5.4
v -4.1 1 5.4
v -3.9 1 5.4
v -5.1 1 5.3
v -4.9 1 5.3
v -4.7 1 5.3
v -4.5 1 5.3
v -5.7 1 5.2
v -5.5 1 5.2
v -5.1 1 5.2
v -4.7 1 5.2
v -4.5 1 5.2
v -4.1 1 5.2
v -3.9 1 5.2
v -5.4 1.1 5.5
v -5.2 1.1 5.5
v -4.4 1.1 5.5
v -4.2 1.1 5.5
v -5.5 1.1 5.4
v -5.4 1.1 5.4
v -5.2 1.1 5.4
v -5.1 1.1 5.4
v -4.5 1.1 5.4
v -4.4 1.1 5.4
v -4.2 1.1 5.4
v -4.1 1.1 5.4
v -5.5 1.1 5.2
v -5.4 1.1 5.2
v -5.2 1.1 5.2
v -5.1 1.1 5.2
v -4.5 1.1 5.2
v -4.4 1.1 5.2
v -4.2 1.1 5.2
v -4.1 1.1 5.2
v -5.4 1.1 5.1
v -5.2 1.1 5.1
v -4.4 1.1 5.1
v -4.2 1.1 5.1

# faces
f 3/3/1 2/3/1 1/3/1
f 4/3/1 2/3/1 3/3/1
f 7/3/1 6/3/1 5/3/1
f 8/3/1 6/3/1 7/3/1
f 12/1/1 10/1/1 9/1/1
f 13/3/1 11/3/1 10/3/1
f 13/1/1 10/1/1 12/1/1
f 14/3/1 13/3/1 12/3/1
f 15/3/1 11/3/1 13/3/1
f 15/3/1 13/3/1 14/3/1
f 19/1/1 17/1/1 16/1/1
f 20/3/1 18/3/1 17/3/1
f 20/1/1 17/1/1 19/1/1
f 21/3/1 20/3/1 19/3/1
f 22/3/1 18/3/1 20/3/1
f 22/3/1 20/3/1 21/3/1
f 25/3/1 24/3/1 23/3/1
f 26/3/1 24/3/1 25/3/1
f 31/3/1 30/3/1 29/3/1
f 32/3/1 30/3/1 31/3/1
f 33/3/1 28/3/1 27/3/1
f 34/3/1 33/3/1 27/3/1
f 35/1/1 32/1/1 31/1/1
f 36/1/1 32/1/1 35/1/1
f 37/3/1 34/3/1 27/3/1
f 38/3/1 37/3/1 27/3/1
f 39/3/1 37/3/1 38/3/1
f 40/3/1 36/3/1 35/3/1
f 41/3/1 36/3/1 40/3/1
f 44/3/1 43/3/1 42/3/1
f 45/3/1 43/3/1 44/3/1
f 46/3/1 44/3/1 42/3/1
f 46/2/1 45/2/1 44/2/1
f 47/2/1 45/2/1 46/2/1
f 48/3/1 46/3/1 42/3/1
f 49/1/1 47/1/1 46/1/1
f 49/3/1 46/3/1 48/3/1
f 50/1/1 47/1/1 49/1/1
f 54/3/1 52/3/1 51/3/1
f 54/3/1 53/3/1 52/3/1
f 55/3/1 53/3/1 54/3/1
f 59/3/1 57/3/1 56/3/1
f 59/3/1 58/3/1 57/3/1
f 60/3/1 58/3/1 59/3/1
f 65/3/1 64/3/1 63/3/1
f 66/3/1 64/3/1 65/3/1
f 67/3/1 64/3/1 66/3/1
f 68/3/1 62/3/1 61/3/1
f 69/3/1 62/3/1 68/3/1
f 70/3/1 64/3/1 67/3/1
f 71/3/1 64/3/1 70/3/1
f 72/1/1 69/1/1 68/1/1
f 73/1/1 69/1/1 72/1/1
f 74/1/1 71/1/1 70/1/1
f 75/1/1 71/1/1 74/1/1
f 76/1/1 71/1/1 75/1/1
f 77/3/1 73/3/1 72/3/1
f 78/3/1 73/3/1 77/3/1
f 79/3/1 76/3/1 75/3/1
f 80/3/1 76/3/1 79/3/1
f 81/3/2 82/3/2 85/3/2
f 83/3/2 84/3/2 86/3/2
f 81/3/2 85/3/2 87/3/2
f 87/3/2 85/3/2 88/3/2
f 87/1/2 88/1/2 89/1/2
f 87/1/2 89/1/2 90/1/2
f 90/1/2 89/1/2 91/1/2
f 86/3/2 84/3/2 92/3/2
f 90/3/2 91/3/2 93/3/2
f 93/3/2 91/3/2 94/3/2
f 92/3/2 84/3/2 95/3/2
f 95/3/2 84/3/2 96/3/2
f 95/1/2 96/1/2 97/1/2
f 93/1/2 94/1/2 98/1/2
f 97/1/2 96/1/2 99/1/2
f 99/1/2 96/1/2 100/1/2
f 93/1/2 98/1/2 101/1/2
f 101/1/2 98/1/2 102/1/2
f 101/3/2 102/3/2 103/3/2
f 103/3/2 102/3/2 104/3/2
f 99/3/2 100/3/2 105/3/2
f 105/3/2 100/3/2 106/3/2
f 107/3/2 108/3/2 109/3/2
f 109/3/2 108/3/2 110/3/2
f 109/1/2 110/1/2 111/1/2
f 111/1/2 110/1/2 112/1/2
f 111/3/2 112/3/2 113/3/2
f 112/1/2 110/1/2 114/1/2
f 113/3/2 112/3/2 114/3/2
f 114/1/2 110/1/2 115/1/2
f 116/3/2 117/3/2 118/3/2
f 118/3/2 117/3/2 119/3/2
f 119/3/2 117/3/2 120/3/2
f 121/3/2 122/3/2 124/3/2
f 122/3/2 123/3/2 124/3/2
f 124/3/2 123/3/2 125/3/2
f 126/3/2 127/3/2 130/3/2
f 128/1/2 129/1/2 131/1/2
f 131/1/2 129/1/2 132/1/2
f 126/3/2 130/3/2 133/3/2
f 131/3/2 132/3/2 134/3/2
f 134/3/2 132/3/2 135/3/2
f 135/3/2 132/3/2 136/3/2
f 136/3/2 132/3/2 137/3/2
f 126/3/2 133/3/2 138/3/2
f 138/3/2 133/3/2 139/3/2
f 137/3/2 132/3/2 140/3/2
f 140/3/2 132/3/2 141/3/2
f 142/3/2 143/3/2 144/3/2
f 144/3/2 143/3/2 145/3/2
f 144/1/2 145/1/2 146/1/2
f 145/3/2 143/3/2 147/3/2
f 146/1/2 145/1/2 147/1/2
f 147/3/2 143/3/2 148/3/2
f 149/3/2 150/3/2 152/3/2
f 150/1/2 151/1/2 152/1/2
f 152/1/2 151/1/2 153/1/2
f 149/3/2 152/3/2 154/3/2
f 152/3/2 153/3/2 154/3/2
f 154/3/2 153/3/2 155/3/2
f 156/3/2 157/3/2 158/3/2
f 158/3/2 157/3/2 159/3/2
f 160/3/2 161/3/2 162/3/2
f 162/3/2 161/3/2 163/3/2
f 164/3/2 165/3/2 166/3/2
f 166/3/2 165/3/2 167/3/2
f 170/3/3 169/3/3 168/3/3
f 171/3/3 169/3/3 170/3/3
f 172/3/3 169/3/3 171/3/3
f 173/3/3 169/3/3 172/3/3
f 174/3/3 170/3/3 168/3/3
f 175/1/3 171/1/3 170/1/3
f 175/3/3 170/3/3 174/3/3
f 176/3/3 172/3/3 171/3/3
f 176/1/3 171/1/3 175/1/3
f 177/1/3 173/1/3 172/1/3
f 177/3/3 172/3/3 176/3/3
f 178/3/3 169/3/3 173/3/3
f 178/1/3 173/1/3 177/1/3
f 179/3/3 169/3/3 178/3/3
f 184/3/3 181/3/3 180/3/3
f 184/1/3 182/1/3 181/1/3
f 185/3/3 183/3/3 182/3/3
f 185/1/3 182/1/3 184/1/3
f 186/3/3 184/3/3 180/3/3
f 186/3/3 185/3/3 184/3/3
f 187/3/3 183/3/3 185/3/3
f 187/3/3 185/3/3 186/3/3
f 194/3/3 189/3/3 188/3/3
f 195/3/3 189/3/3 194/3/3
f 196/3/3 189/3/3 195/3/3
f 198/3/3 191/3/3 190/3/3
f 199/3/3 191/3/3 198/3/3
f 201/1/3 193/1/3 192/1/3
f 202/3/3 194/3/3 193/3/3
f 202/1/3 193/1/3 201/1/3
f 202/3/3 195/3/3 194/3/3
f 203/1/3 197/1/3 196/1/3
f 203/3/3 195/3/3 202/3/3
f 203/1/3 196/1/3 195/1/3
f 204/3/3 200/3/3 199/3/3
f 204/1/3 197/1/3 203/1/3
f 204/3/3 199/3/3 198/3/3
f 204/3/3 198/3/3 197/3/3
f 205/3/3 200/3/3 204/3/3
f 215/3/3 207/3/3 206/3/3
f 216/1/3 208/1/3 207/1/3
f 216/3/3 207/3/3 215/3/3
f 216/1/3 209/1/3 208/1/3
f 217/3/3 210/3/3 209/3/3
f 217/1/3 209/1/3 216/1/3
f 217/3/3 211/3/3 210/3/3
f 217/3/3 212/3/3 211/3/3
f 218/3/3 212/3/3 217/3/3
f 219/3/3 212/3/3 218/3/3
f 220/3/3 212/3/3 219/3/3
f 221/3/3 214/3/3 213/3/3
f 221/1/3 213/1/3 212/1/3
f 222/3/3 214/3/3 221/3/3
f 223/3/3 212/3/3 220/3/3
f 223/1/3 221/1/3 212/1/3
f 224/1/3 221/1/3 223/1/3
f 225/3/3 219/3/3 218/3/3
f 226/3/3 219/3/3 225/3/3
f 228/3/3 225/3/3 218/3/3
f 229/1/3 226/1/3 225/1/3
f 229/3/3 225/3/3 228/3/3
f 230/1/3 226/1/3 229/1/3
f 231/3/3 223/3/3 220/3/3
f 231/3/3 224/3/3 223/3/3
f 232/3/3 224/3/3 231/3/3
f 234/3/3 232/3/3 231/3/3
f 234/3/3 233/3/3 232/3/3
f 234/3/3 231/3/3 230/3/3
f 234/3/3 230/3/3 229/3/3
f 234/3/3 228/3/3 227/3/3
f 234/3/3 229/3/3 228/3/3
f 235/3/3 233/3/3 234/3/3
f 236/3/3 233/3/3 235/3/3
f 237/3/3 233/3/3 236/3/3
f 242/3/3 239/3/3 238/3/3
f 243/1/3 240/1/3 239/1/3
f 243/3/3 239/3/3 242/3/3
f 244/1/3 240/1/3 243/1/3
f 245/3/3 241/3/3 240/3/3
f 245/1/3 240/1/3 244/1/3
f 246/3/3 241/3/3 245/3/3
f 247/3/3 241/3/3 246/3/3
f 248/3/3 241/3/3 247/3/3
f 249/3/3 241/3/3 248/3/3
f 250/3/3 245/3/3 244/3/3
f 250/3/3 246/3/3 245/3/3
f 251/3/3 246/3/3 250/3/3
f 252/3/3 248/3/3 247/3/3
f 253/3/3 248/3/3 252/3/3
f 254/3/4 255/3/4 259/3/4
f 259/3/4 255/3/4 260/3/4
f 256/3/4 257/3/4 261/3/4
f 261/3/4 257/3/4 262/3/4
f 259/3/4 260/3/4 264/3/4
f 262/3/4 263/3/4 264/3/4
f 261/3/4 262/3/4 264/3/4
f 260/3/4 261/3/4 264/3/4
f 258/3/4 259/3/4 264/3/4
f 264/3/4 263/3/4 265/3/4
f 265/3/4 263/3/4 266/3/4
f 266/3/4 263/3/4 267/3/4
f 268/3/4 269/3/4 275/3/4
f 269/1/4 270/1/4 276/1/4
f 275/3/4 269/3/4 276/3/4
f 270/3/4 271/3/4 277/3/4
f 276/1/4 270/1/4 277/1/4
f 271/3/4 272/3/4 277/3/4
f 277/3/4 272/3/4 278/3/4
f 272/1/4 273/1/4 279/1/4
f 278/3/4 272/3/4 279/3/4
f 273/3/4 274/3/4 280/3/4
f 280/3/4 274/3/4 281/3/4
f 279/1/4 273/1/4 282/1/4
f 273/3/4 280/3/4 283/3/4
f 282/1/4 273/1/4 283/1/4
f 282/3/4 283/3/4 284/3/4
f 283/3/4 280/3/4 284/3/4
f 284/3/4 280/3/4 285/3/4
f 277/3/4 278/3/4 289/3/4
f 289/3/4 278/3/4 290/3/4
f 290/3/4 278/3/4 291/3/4
f 282/3/4 284/3/4 292/3/4
f 284/1/4 285/1/4 293/1/4
f 286/3/4 287/3/4 295/3/4
f 287/2/4 288/2/4 296/2/4
f 295/3/4 287/3/4 296/3/4
f 288/1/4 289/1/4 297/1/4
f 296/2/4 288/2/4 297/2/4
f 289/1/4 290/1/4 297/1/4
f 290/3/4 291/3/4 298/3/4
f 297/1/4 290/1/4 298/1/4
f 291/3/4 292/3/4 298/3/4
f 298/3/4 292/3/4 299/3/4
f 284/1/4 293/1/4 300/1/4
f 299/3/4 292/3/4 300/3/4
f 292/3/4 284/3/4 300/3/4
f 293/3/4 294/3/4 301/3/4
f 300/1/4 293/1/4 301/1/4
f 301/3/4 294/3/4 302/3/4
f 303/3/4 304/3/4 310/3/4
f 304/3/4 305/3/4 310/3/4
f 310/3/4 305/3/4 311/3/4
f 305/1/4 306/1/4 312/1/4
f 311/3/4 305/3/4 312/3/4
f 312/1/4 306/1/4 313/1/4
f 306/3/4 307/3/4 314/3/4
f 313/1/4 306/1/4 314/1/4
f 307/2/4 308/2/4 315/2/4
f 314/3/4 307/3/4 315/3/4
f 308/3/4 309/3/4 316/3/4
f 315/2/4 308/2/4 316/2/4
f 316/3/4 309/3/4 317/3/4
f 317/3/4 309/3/4 318/3/4
f 312/3/4 313/3/4 319/3/4
f 311/3/4 312/3/4 319/3/4
f 319/3/4 313/3/4 320/3/4
f 316/3/4 317/3/4 321/3/4
f 315/3/4 316/3/4 321/3/4
f 321/3/4 317/3/4 322/3/4
f 323/3/4 324/3/4 327/3/4
f 324/1/4 325/1/4 327/1/4
f 325/3/4 326/3/4 328/3/4
f 327/1/4 325/1/4 328/1/4
f 328/3/4 326/3/4 329/3/4
f 329/3/4 326/3/4 330/3/4
f 323/3/4 327/3/4 331/3/4
f 327/3/4 328/3/4 331/3/4
f 328/3/4 329/3/4 331/3/4
f 329/1/4 330/1/4 332/1/4
f 331/3/4 329/3/4 332/3/4
f 330/3/4 326/3/4 333/3/4
f 332/1/4 330/1/4 333/1/4
f 333/3/4 326/3/4 334/3/4
f 335/3/4 336/3/4 339/3/4
f 339/3/4 336/3/4 340/3/4
f 336/1/4 337/1/4 341/1/4
f 340/3/4 336/3/4 341/3/4
f 337/3/4 338/3/4 342/3/4
f 341/1/4 337/1/4 342/1/4
f 339/1/4 340/1/4 343/1/4
f 340/3/4 341/3/4 344/3/4
f 343/1/4 340/1/4 344/1/4
f 341/3/4 342/3/4 344/3/4
f 342/3/4 338/3/4 345/3/4
f 344/3/4 342/3/4 345/3/4
f 351/3/5 347/3/5 346/3/5
f 352/3/5 347/3/5 351/3/5
f 355/3/5 349/3/5 348/3/5
f 356/3/5 349/3/5 355/3/5
f 358/1/5 351/1/5 350/1/5
f 359/3/5 353/3/5 352/3/5
f 359/1/5 351/1/5 358/1/5
f 359/3/5 352/3/5 351/3/5
f 360/3/5 359/3/5 358/3/5
f 361/3/5 353/3/5 359/3/5
f 361/3/5 359/3/5 360/3/5
f 362/3/5 353/3/5 361/3/5
f 363/3/5 353/3/5 362/3/5
f 364/3/5 357/3/5 356/3/5
f 364/3/5 356/3/5 355/3/5
f 364/3/5 355/3/5 354/3/5
f 365/3/5 357/3/5 364/3/5
f 366/3/5 357/3/5 365/3/5
f 367/3/5 357/3/5 366/3/5
f 368/3/5 357/3/5 367/3/5
f 369/3/5 362/3/5 361/3/5
f 370/3/5 362/3/5 369/3/5
f 371/3/5 366/3/5 365/3/5
f 372/1/5 367/1/5 366/1/5
f 372/3/5 366/3/5 371/3/5
f 373/1/5 367/1/5 372/1/5
f 380/3/5 377/3/5 376/3/5
f 381/3/5 377/3/5 380/3/5
f 382/3/5 379/3/5 378/3/5
f 383/3/5 375/3/5 374/3/5
f 384/3/5 375/3/5 383/3/5
f 385/3/5 381/3/5 380/3/5
f 386/3/5 381/3/5 385/3/5
f 387/3/5 379/3/5 382/3/5
f 388/3/5 379/3/5 387/3/5
f 395/3/5 392/3/5 391/3/5
f 396/3/5 392/3/5 395/3/5
f 397/3/5 390/3/5 389/3/5
f 398/3/5 390/3/5 397/3/5
f 399/1/5 396/1/5 395/1/5
f 400/3/5 392/3/5 396/3/5
f 400/1/5 396/1/5 399/1/5
f 401/3/5 392/3/5 400/3/5
f 402/3/5 394/3/5 393/3/5
f 403/3/5 394/3/5 402/3/5
f 404/3/6 405/3/6 411/3/6
f 406/3/6 407/3/6 412/3/6
f 407/1/6 408/1/6 412/1/6
f 412/1/6 408/1/6 413/1/6
f 409/3/6 410/3/6 414/3/6
f 404/3/6 411/3/6 415/3/6
f 415/3/6 411/3/6 416/3/6
f 412/3/6 413/3/6 417/3/6
f 406/3/6 412/3/6 417/3/6
f 417/3/6 413/3/6 418/3/6
f 414/3/6 410/3/6 419/3/6
f 419/3/6 410/3/6 420/3/6
f 423/1/6 424/1/6 428/1/6
f 424/3/6 425/3/6 429/3/6
f 428/1/6 424/1/6 429/1/6
f 429/3/6 425/3/6 430/3/6
f 430/3/6 425/3/6 431/3/6
f 421/3/6 422/3/6 432/3/6
f 432/3/6 422/3/6 433/3/6
f 428/3/6 429/3/6 434/3/6
f 429/3/6 430/3/6 434/3/6
f 430/1/6 431/1/6 435/1/6
f 434/3/6 430/3/6 435/3/6
f 435/1/6 431/1/6 436/1/6
f 426/3/6 427/3/6 437/3/6
f 437/3/6 427/3/6 438/3/6
f 439/3/6 440/3/6 444/3/6
f 444/3/6 440/3/6 445/3/6
f 441/3/6 442/3/6 448/3/6
f 448/3/6 442/3/6 449/3/6
f 445/3/6 446/3/6 451/3/6
f 443/3/6 444/3/6 451/3/6
f 444/3/6 445/3/6 451/3/6
f 451/3/6 446/3/6 452/3/6
f 452/3/6 446/3/6 453/3/6
f 453/3/6 446/3/6 454/3/6
f 449/3/6 450/3/6 455/3/6
f 448/3/6 449/3/6 455/3/6
f 447/3/6 448/3/6 455/3/6
f 455/3/6 450/3/6 456/3/6
f 456/3/6 450/3/6 457/3/6
f 457/3/6 450/3/6 458/3/6
f 452/3/6 453/3/6 459/3/6
f 459/3/6 453/3/6 460/3/6
f 456/3/6 457/3/6 461/3/6
f 461/3/6 457/3/6 462/3/6
